# This file uses centimeters as units for non-parametric coordinates.

mtllib Rock1.mtl
g default
v -0.368425 0.275461 -0.016636
v -0.389650 0.275461 0.048688
v -0.507047 0.275461 -0.016636
v -0.461177 0.275461 0.454473
v -0.588750 0.275461 0.234818
v -0.320848 0.275461 0.556427
v -0.206086 0.275461 0.378096
v -0.154553 0.275461 0.219496
v -0.140741 0.275461 0.425572
v -0.074356 0.761867 0.218713
v -0.119852 0.761867 0.358736
v -0.023656 0.761867 0.255549
v -0.023656 1.162800 0.206876
v -0.215294 1.162800 0.067643
v -0.357709 0.525688 0.041516
v 0.322078 0.434181 0.044139
v 0.297543 0.434181 0.061965
v 0.229072 1.162800 0.023258
v 0.269607 0.603614 0.061692
v 0.206438 0.761867 0.088375
v -0.614465 0.000000 -0.295564
v -0.479396 0.525688 -0.325889
v -0.462171 0.000000 -0.184916
v -0.353729 0.092121 -0.128639
v -0.284371 0.525688 -0.184195
v -0.230112 0.525688 -0.351187
v -0.179851 1.162800 -0.273842
v -0.215294 1.162800 -0.164760
v 0.006362 0.354556 -0.371962
v 0.036612 0.434181 -0.362296
v -0.027651 0.525688 -0.351187
v 0.190019 0.434181 -0.362296
v 0.132538 1.162800 -0.273842
v -0.023799 0.000000 -0.724708
v 0.008314 0.000000 -0.625876
v -0.107276 0.525688 -0.596250
v -0.009426 0.180262 -0.548324
v 0.110130 0.000000 0.654286
v -0.056895 0.000000 0.532935
v 0.110130 0.761867 0.525828
v -0.616403 0.000000 -0.184916
v -0.271390 0.525688 -0.596250
v -0.428682 0.525688 -0.481971
v -0.475028 0.000000 -0.724708
v -0.461177 0.087226 -0.703393
v 0.252267 0.761867 0.088375
v 0.475182 0.000000 0.389061
v 0.450764 0.137730 0.383579
v 0.278535 0.761867 0.403474
v -0.320848 0.000000 0.724708
v 0.316592 0.761867 0.286347
v 0.327447 0.434181 0.154002
v 0.434279 0.000000 0.263175
v -0.799065 0.000000 0.377262
v -0.710595 0.137730 0.357400
v 0.596310 0.000000 -0.625876
v 0.799065 0.000000 -0.001857
v 0.602662 0.434181 -0.045953
v 0.061563 0.434181 -0.439084
v 0.536855 0.434181 -0.248486
v 0.387737 0.434181 -0.439084
v 0.557804 0.137730 -0.566622
vt 19.962500 -0.654951
vt 15.340560 1.916835
vt 14.504940 -0.654951
vt 18.156561 17.892630
vt 23.179131 9.244818
vt 12.631810 21.906590
vt 8.113612 14.885680
vt 6.084773 8.641558
vt 5.540987 16.754810
vt 10.098910 10.233490
vt 14.890330 29.615860
vt 9.093922 29.615860
vt 16.664370 10.233490
vt 4.033863 44.862751
vt 2.692949 29.002029
vt 5.160212 29.002029
vt -5.291999 44.862751
vt -10.432690 19.658920
vt 0.156696 9.760044
vt -11.284090 9.760044
vt 6.757969 44.969769
vt 8.043113 16.145960
vt 9.237091 16.145960
vt 7.159642 22.848650
vt 4.530179 29.109039
vt -6.667161 29.109039
vt -5.540812 44.969769
vt -18.999821 -0.931959
vt -22.810711 20.164970
vt -26.411051 -0.931959
vt -14.243490 2.765046
vt -13.320020 20.164970
vt -3.437184 19.125099
vt -8.065438 44.366611
vt -10.349990 19.125099
vt -3.549862 44.366611
vt -0.513176 1.947777
vt 5.906411 19.125099
vt 3.859376 9.211434
vt 6.563512 9.211434
vt 1.088604 18.879271
vt -1.441433 15.250180
vt -0.250468 12.092310
vt -7.481067 15.250180
vt -5.218045 44.146580
vt 9.059546 18.879271
vt 7.080737 44.146580
vt 23.630600 19.469700
vt 23.333620 -1.751091
vt 27.424900 -1.751091
vt 20.645670 5.525654
vt 13.485940 19.469700
vt 13.850040 12.561490
vt 8.641042 44.564732
vt -5.571106 15.697840
vt 11.253720 15.697840
vt -3.657740 44.564732
vt 15.676030 27.800350
vt 10.520550 -2.472175
vt 18.648701 -2.472175
vt 5.365475 8.473158
vt 4.484137 27.800350
vt 2.185535 8.473158
vt 24.267820 -3.795314
vt 13.926330 0.454724
vt 18.195721 -3.795314
vt 19.962500 8.913161
vt 14.504940 8.913161
vt 4.223475 -23.474390
vt 9.059546 -13.826250
vt 1.088604 -13.826250
vt 10.684660 -23.474390
vt 11.195720 -7.251780
vt 16.877230 -18.975220
vt 18.873850 -12.830270
vt 18.156561 -3.237697
vt 0.936967 -6.772819
vt 18.701870 -6.772819
vt 4.223475 14.532520
vt 10.684660 14.532520
vt -3.591254 -5.877696
vt -20.726589 -2.356604
vt -21.356159 -5.877696
vt -12.831160 15.343090
vt -6.369969 15.343090
vt -9.931784 30.155750
vt -10.614450 23.837391
vt -8.127493 30.155750
vt 5.480868 2.311586
vt -11.633170 -3.161080
vt 6.131738 -3.161080
vt -8.660495 27.111441
vt -0.465218 27.111441
vt -14.330980 5.159525
vt -26.989920 -6.937603
vt -14.144910 -6.937603
vt -23.095720 5.159525
vt -9.931784 3.479333
vt -10.965960 15.884820
vt -12.464260 11.273510
vt -4.335838 20.701880
vt -8.127493 3.479333
vt 0.931346 10.060960
vt 4.718592 14.123460
vt 2.927404 8.610744
vt -6.378133 28.342199
vt -5.940066 15.284530
vt -5.589993 22.036131
vt -9.750054 15.284530
vt -14.573410 28.342199
vt -15.137570 -2.016764
vt -20.348740 -2.016764
vt -19.846399 3.471529
vt 2.657022 -1.419923
vt -16.720800 -13.517050
vt 6.551226 -13.517050
vt -14.362580 -7.468488
vt -4.171939 -1.419923
vt 23.847349 -12.482460
vt 5.545856 -0.019115
vt 0.575321 -12.482460
vt 15.955090 -0.019115
vt 22.027290 -6.250786
vt -5.218045 -10.781170
vt 0.931346 8.144705
vt -9.018578 0.915662
vt 7.080737 -10.781170
vt 8.476127 2.663101
vt 8.476127 -6.486606
vt 4.335838 25.759300
vt 17.097610 10.361230
vt 18.707951 15.317350
vt 0.327306 -24.640770
vt 23.476761 -24.640770
vt 31.459270 -0.073128
vt -2.239972 20.981689
vt -0.936967 -28.531799
vt -18.701870 -28.531799
vt -12.631810 28.531799
vt -18.195721 -7.280165
vt -31.459270 14.852850
vt -24.267820 -7.280165
vt -24.191530 -11.636370
vt 20.258820 12.040670
vt 7.742077 -6.058839
vt 25.494070 -6.058839
vt 6.865761 12.040670
vt -14.004840 11.377540
vt -17.189680 14.752520
vt -20.416321 3.989955
vt -14.010920 14.752520
vt -21.136009 -9.782906
vt -12.891630 6.063071
vt -23.726839 -1.809169
vt -15.265230 -17.286791
vt -12.680220 1.737753
vt -7.481067 -14.263610
vt -2.423723 -17.286791
vt -1.441433 -14.263610
vt -11.714280 2.439557
vt -5.153825 8.447565
vt -1.588367 -10.497020
vt 2.500613 8.447565
vt 2.663101 42.827881
vt -6.486606 42.827881
vt 1.634507 17.125690
vt -1.882944 -20.660160
vt 6.353595 -12.139970
vt -3.646946 -12.139970
vt 0.371095 -2.012082
vt -23.476761 -9.737905
vt -0.327306 -9.737905
vt -21.960800 -3.834937
vt -15.265230 8.870610
vt -2.423723 8.870610
vt 14.429860 -5.254409
vt -9.651902 -11.092220
vt 16.180050 -11.092220
vt 2.772710 7.310889
vt -5.611373 7.310889
vt -5.318795 0.680774
vt 4.037674 -13.680020
vt 4.208757 0.680774
vt -11.718690 25.325121
vt -8.878388 -0.018941
vt -6.870071 25.325121
vn 0.000000 1.000000 0.000000
vn 0.000000 1.000000 0.000000
vn 0.000000 1.000000 0.000000
vn 0.000000 1.000000 0.000000
vn 0.000000 1.000000 0.000000
vn 0.000000 1.000000 0.000000
vn 0.000000 1.000000 0.000000
vn 0.000000 1.000000 0.000000
vn 0.000000 1.000000 0.000000
vn 0.000000 1.000000 0.000000
vn 0.000000 1.000000 0.000000
vn 0.000000 1.000000 0.000000
vn 0.000000 1.000000 0.000000
vn 0.000000 1.000000 0.000000
vn 0.000000 1.000000 0.000000
vn 0.000000 1.000000 0.000000
vn 0.000000 1.000000 0.000000
vn 0.000000 1.000000 0.000000
vn 0.000000 1.000000 0.000000
vn 0.000000 1.000000 0.000000
vn 0.000000 1.000000 0.000000
vn -0.939647 0.154435 -0.305310
vn -0.939647 0.154435 -0.305310
vn -0.939647 0.154435 -0.305310
vn -0.939647 0.154435 -0.305310
vn -0.939647 0.154435 -0.305310
vn -0.939647 0.154435 -0.305310
vn -0.584971 0.097744 0.805143
vn -0.584971 0.097744 0.805143
vn -0.584971 0.097744 0.805143
vn -0.584971 0.097744 0.805143
vn -0.584971 0.097744 0.805143
vn -0.584971 0.097744 0.805143
vn -0.584971 0.097744 0.805143
vn -0.584971 0.097744 0.805143
vn -0.584971 0.097744 0.805143
vn -0.584971 0.097744 0.805143
vn -0.584971 0.097744 0.805143
vn -0.584971 0.097744 0.805143
vn -0.584971 0.097744 0.805143
vn -0.584971 0.097744 0.805143
vn -0.584971 0.097744 0.805143
vn 0.584971 0.097744 0.805143
vn 0.584971 0.097744 0.805143
vn 0.584971 0.097744 0.805143
vn 0.584971 0.097744 0.805143
vn 0.584971 0.097744 0.805143
vn 0.584971 0.097744 0.805143
vn 0.584971 0.097744 0.805143
vn 0.584971 0.097744 0.805143
vn 0.584971 0.097744 0.805143
vn 0.584971 0.097744 0.805143
vn 0.584971 0.097744 0.805143
vn 0.584971 0.097744 0.805143
vn 0.584971 0.097744 0.805143
vn 0.584971 0.097744 0.805143
vn 0.584971 0.097744 0.805143
vn -0.576625 0.193940 0.793657
vn -0.576625 0.193940 0.793657
vn -0.576625 0.193940 0.793657
vn -0.576625 0.193940 0.793657
vn -0.576625 0.193940 0.793657
vn -0.576625 0.193940 0.793657
vn -0.576625 0.193940 0.793657
vn -0.576625 0.193940 0.793657
vn -0.576625 0.193940 0.793657
vn -0.945090 0.111837 -0.307078
vn -0.945090 0.111837 -0.307078
vn -0.945090 0.111837 -0.307078
vn -0.945090 0.111837 -0.307078
vn -0.945090 0.111837 -0.307078
vn -0.969733 0.155934 -0.187892
vn -0.969733 0.155934 -0.187892
vn -0.945090 0.111837 -0.307078
vn -0.945090 0.111837 -0.307078
vn -0.969733 0.155934 -0.187892
vn -0.945090 0.111837 -0.307078
vn -0.953346 0.123990 -0.275243
vn -0.953346 0.123990 -0.275243
vn -0.945090 0.111837 -0.307078
vn -0.945090 0.111837 -0.307078
vn -0.953346 0.123990 -0.275243
vn -0.945090 0.111837 -0.307078
vn -0.945090 0.111837 -0.307078
vn 0.000000 0.120514 -0.992712
vn 0.000000 0.120514 -0.992712
vn 0.000000 0.120514 -0.992712
vn 0.000000 0.120514 -0.992712
vn 0.000000 0.120514 -0.992712
vn 0.000000 0.120514 -0.992712
vn 0.000000 0.120514 -0.992712
vn 0.000000 0.120514 -0.992712
vn 0.000000 0.120514 -0.992712
vn 0.000000 0.120514 -0.992712
vn 0.000000 0.120514 -0.992712
vn 0.000000 0.120514 -0.992712
vn 0.000000 0.120514 -0.992712
vn 0.000000 0.120514 -0.992712
vn 0.000000 0.120514 -0.992712
vn 0.927554 0.220938 -0.301380
vn 0.927554 0.220938 -0.301380
vn 0.927554 0.220938 -0.301380
vn 0.927554 0.220938 -0.301380
vn 0.927554 0.220938 -0.301380
vn 0.927554 0.220938 -0.301380
vn 0.927554 0.220938 -0.301380
vn 0.927554 0.220938 -0.301380
vn 0.927554 0.220938 -0.301380
vn 0.927554 0.220938 -0.301380
vn 0.927554 0.220938 -0.301380
vn 0.927554 0.220938 -0.301380
vn 0.945090 0.111837 -0.307078
vn 0.945090 0.111837 -0.307078
vn 0.945090 0.111837 -0.307078
vn 0.945090 0.111837 -0.307078
vn 0.945090 0.111837 -0.307078
vn 0.945090 0.111837 -0.307078
vn -0.582392 0.135157 0.801594
vn -0.582392 0.135157 0.801594
vn -0.582392 0.135157 0.801594
vn -0.582392 0.135157 0.801594
vn -0.582392 0.135157 0.801594
vn -0.582392 0.135157 0.801594
vn -0.582392 0.135157 0.801594
vn -0.582392 0.135157 0.801594
vn -0.582392 0.135157 0.801594
vn -0.582392 0.135157 0.801594
vn -0.582392 0.135157 0.801594
vn -0.582392 0.135157 0.801594
vn 0.000000 0.521322 -0.853360
vn 0.000000 0.521322 -0.853360
vn 0.000000 0.521322 -0.853360
vn 0.000000 0.521322 -0.853360
vn 0.000000 0.521322 -0.853360
vn 0.000000 0.521322 -0.853360
vn 0.000000 0.521322 -0.853360
vn 0.000000 0.521322 -0.853360
vn 0.000000 0.521322 -0.853360
vn 0.000000 1.000000 0.000000
vn 0.000000 1.000000 0.000000
vn 0.000000 1.000000 0.000000
vn 0.000000 1.000000 0.000000
vn 0.000000 1.000000 0.000000
vn 0.000000 1.000000 0.000000
vn 0.000000 1.000000 0.000000
vn 0.000000 1.000000 0.000000
vn 0.000000 1.000000 0.000000
vn 0.000000 1.000000 0.000000
vn 0.000000 1.000000 0.000000
vn 0.000000 1.000000 0.000000
vn 0.000000 1.000000 0.000000
vn 0.000000 1.000000 0.000000
vn 0.000000 1.000000 0.000000
vn 0.000000 0.237378 -0.971417
vn 0.000000 0.237378 -0.971417
vn 0.000000 0.237378 -0.971417
vn 0.000000 0.237378 -0.971417
vn 0.000000 0.237378 -0.971417
vn 0.000000 0.237378 -0.971417
vn 0.000000 0.237378 -0.971417
vn 0.000000 0.237378 -0.971417
vn 0.000000 0.237378 -0.971417
vn -0.927554 0.220938 -0.301380
vn -0.927554 0.220938 -0.301380
vn -0.927554 0.220938 -0.301380
vn -0.927554 0.220938 -0.301380
vn -0.927554 0.220938 -0.301380
vn -0.927554 0.220938 -0.301380
vn -0.927554 0.220938 -0.301380
vn -0.927554 0.220938 -0.301380
vn -0.927554 0.220938 -0.301380
vn 0.000000 0.166263 -0.986081
vn 0.000000 0.166263 -0.986081
vn 0.000000 0.166263 -0.986081
vn 0.582392 0.135157 0.801594
vn 0.582392 0.135157 0.801594
vn 0.582392 0.135157 0.801594
vn 0.582392 0.135157 0.801594
vn 0.582392 0.135157 0.801594
vn 0.582392 0.135157 0.801594
vn 0.582392 0.135157 0.801594
vn 0.582392 0.135157 0.801594
vn 0.582392 0.135157 0.801594
vn 0.526941 0.443073 0.725272
vn 0.526941 0.443073 0.725272
vn 0.526941 0.443073 0.725272
vn 0.526941 0.443073 0.725272
vn 0.526941 0.443073 0.725272
vn 0.526941 0.443073 0.725272
vn 0.000000 1.000000 0.000000
vn 0.000000 1.000000 0.000000
vn 0.000000 1.000000 0.000000
vn 0.000000 1.000000 0.000000
vn 0.000000 1.000000 0.000000
vn 0.000000 1.000000 0.000000
vn 0.000000 1.000000 0.000000
vn 0.000000 1.000000 0.000000
vn 0.000000 1.000000 0.000000
vn 0.000000 1.000000 0.000000
vn 0.000000 1.000000 0.000000
vn 0.000000 1.000000 0.000000
vn 0.000000 1.000000 0.000000
vn 0.000000 1.000000 0.000000
vn 0.000000 1.000000 0.000000
vn 0.000000 1.000000 0.000000
vn 0.000000 1.000000 0.000000
vn 0.000000 1.000000 0.000000
vn 0.939647 0.154435 -0.305310
vn 0.939647 0.154435 -0.305310
vn 0.939647 0.154435 -0.305310
vn 0.939647 0.154435 -0.305310
vn 0.939647 0.154435 -0.305310
vn 0.939647 0.154435 -0.305310
vn 0.939647 0.154435 -0.305310
vn 0.939647 0.154435 -0.305310
vn 0.939647 0.154435 -0.305310
vn 0.939647 0.154435 -0.305310
vn 0.939647 0.154435 -0.305310
vn 0.939647 0.154435 -0.305310
vn 0.939647 0.154435 -0.305310
vn 0.939647 0.154435 -0.305310
vn 0.939647 0.154435 -0.305310
vn 0.939647 0.154435 -0.305310
vn 0.939647 0.154435 -0.305310
vn 0.939647 0.154435 -0.305310
vn -0.526941 0.443073 0.725272
vn -0.526941 0.443073 0.725272
vn -0.526941 0.443073 0.725272
vn -0.526941 0.443073 0.725272
vn -0.526941 0.443073 0.725272
vn -0.526941 0.443073 0.725272
vn -0.526941 0.443073 0.725272
vn -0.526941 0.443073 0.725272
vn -0.526941 0.443073 0.725272
vn -0.827556 0.492798 -0.268889
vn -0.827556 0.492798 -0.268889
vn -0.827556 0.492798 -0.268889
vn -0.827556 0.492798 -0.268889
vn -0.827556 0.492798 -0.268889
vn -0.827556 0.492798 -0.268889
vn -0.827556 0.492798 -0.268889
vn -0.827556 0.492798 -0.268889
vn -0.827556 0.492798 -0.268889
vn 0.000000 1.000000 0.000000
vn 0.000000 1.000000 0.000000
vn 0.000000 1.000000 0.000000
vn 0.000000 1.000000 0.000000
vn 0.000000 1.000000 0.000000
vn 0.000000 1.000000 0.000000
vn 0.000000 1.000000 0.000000
vn 0.000000 1.000000 0.000000
vn 0.000000 1.000000 0.000000
vn 0.000000 1.000000 0.000000
vn 0.000000 1.000000 0.000000
vn 0.000000 1.000000 0.000000
vn 0.000000 -1.000000 0.000000
vn 0.000000 -1.000000 0.000000
vn 0.000000 -1.000000 0.000000
vn 0.000000 -1.000000 0.000000
vn 0.000000 -1.000000 0.000000
vn 0.000000 -1.000000 0.000000
vn 0.000000 -1.000000 0.000000
vn 0.000000 -1.000000 0.000000
vn 0.000000 -1.000000 0.000000
vn 0.000000 -1.000000 0.000000
vn 0.000000 -1.000000 0.000000
vn 0.000000 -1.000000 0.000000
vn 0.000000 -1.000000 0.000000
vn 0.000000 -1.000000 0.000000
vn 0.000000 -1.000000 0.000000
vn 0.000000 -1.000000 0.000000
vn 0.000000 -1.000000 0.000000
vn 0.000000 -1.000000 0.000000
vn 0.000000 -1.000000 0.000000
vn 0.000000 -1.000000 0.000000
vn 0.000000 -1.000000 0.000000
vn 0.000000 -1.000000 0.000000
vn 0.000000 -1.000000 0.000000
vn 0.000000 -1.000000 0.000000
vn 0.000000 -1.000000 0.000000
vn 0.000000 -1.000000 0.000000
vn 0.000000 -1.000000 0.000000
vn 0.000000 -1.000000 0.000000
vn 0.000000 -1.000000 0.000000
vn 0.000000 -1.000000 0.000000
vn 0.000000 -1.000000 0.000000
vn 0.000000 -1.000000 0.000000
vn 0.000000 -1.000000 0.000000
vn 0.000000 -1.000000 0.000000
vn 0.000000 -1.000000 0.000000
vn 0.000000 -1.000000 0.000000
vn 0.555122 0.328711 0.764060
vn 0.555122 0.328711 0.764060
vn 0.555122 0.328711 0.764060
vn 0.555122 0.328711 0.764060
vn 0.555122 0.328711 0.764060
vn 0.555122 0.328711 0.764060
vn -0.883389 0.370455 -0.287031
vn -0.883389 0.370455 -0.287031
vn -0.883389 0.370455 -0.287031
vn -0.883389 0.370455 -0.287031
vn -0.883389 0.370455 -0.287031
vn -0.883389 0.370455 -0.287031
vn 0.000000 1.000000 0.000000
vn 0.000000 1.000000 0.000000
vn 0.000000 1.000000 0.000000
vn 0.000000 1.000000 0.000000
vn 0.000000 1.000000 0.000000
vn 0.000000 1.000000 0.000000
vn 0.000000 1.000000 0.000000
vn 0.000000 1.000000 0.000000
vn 0.000000 1.000000 0.000000
vn 0.000000 1.000000 0.000000
vn 0.000000 1.000000 0.000000
vn 0.000000 1.000000 0.000000
vn 0.000000 1.000000 0.000000
vn 0.000000 1.000000 0.000000
vn 0.000000 1.000000 0.000000
vn 0.000000 1.000000 0.000000
vn 0.000000 1.000000 0.000000
vn 0.000000 1.000000 0.000000
vn 0.000000 1.000000 0.000000
vn 0.000000 1.000000 0.000000
vn 0.000000 1.000000 0.000000
vn -0.535590 0.411965 -0.737176
vn -0.535590 0.411965 -0.737176
vn -0.535590 0.411965 -0.737176
vn -0.975915 0.218150 0.000000
vn -0.969733 0.155934 -0.187892
vn -0.953346 0.123990 -0.275243
vn -0.550337 0.771340 0.319631
vn -0.550337 0.771340 0.319631
vn -0.550337 0.771340 0.319631
vn 0.000000 0.395195 -0.918597
vn 0.000000 0.395195 -0.918597
vn 0.000000 0.395195 -0.918597
vn 0.000000 0.395195 -0.918597
vn 0.000000 0.395195 -0.918597
vn 0.000000 0.395195 -0.918597
vn 0.000000 0.395195 -0.918597
vn 0.000000 0.395195 -0.918597
vn 0.000000 0.395195 -0.918597
vn 0.000000 0.395195 -0.918597
vn 0.000000 0.395195 -0.918597
vn 0.000000 0.395195 -0.918597
vn 0.883389 0.370455 -0.287031
vn 0.883389 0.370455 -0.287031
vn 0.883389 0.370455 -0.287031
vn 0.883389 0.370455 -0.287031
vn 0.883389 0.370455 -0.287031
vn 0.883389 0.370455 -0.287031
vn 0.883389 0.370455 -0.287031
vn 0.883389 0.370455 -0.287031
vn 0.883389 0.370455 -0.287031
vn 0.640095 0.582656 -0.500789
vn 0.640095 0.582656 -0.500789
vn 0.640095 0.582656 -0.500789
vn 0.922095 0.244899 0.299607
vn 0.922095 0.244899 0.299607
vn 0.922095 0.244899 0.299607
s off
g Rock1:rockLarge
usemtl lambert2SG
f 3/1/1 2/2/2 1/3/3
f 2/2/4 3/1/5 4/4/6
f 4/4/7 3/1/8 5/5/9
f 6/6/10 2/2/11 4/4/12
f 7/7/13 2/2/14 6/6/15
f 2/2/16 7/7/17 8/8/18
f 6/6/19 9/9/20 7/7/21
f 8/10/22 11/11/23 10/12/24
f 11/11/25 8/10/26 7/13/27
f 13/14/28 10/15/29 12/16/30
f 14/17/31 10/15/32 13/14/33
f 15/18/34 10/15/35 14/17/36
f 15/18/37 8/19/38 10/15/39
f 8/19/40 15/18/41 2/20/42
f 18/21/43 17/22/44 16/23/45
f 17/22/46 18/21/47 19/24/48
f 19/24/49 18/21/50 20/25/51
f 20/25/52 18/21/53 12/26/54
f 12/26/55 18/21/56 13/27/57
f 23/28/58 22/29/59 21/30/60
f 22/29/61 23/28/62 24/31/63
f 22/29/64 24/31/65 25/32/66
f 25/33/67 27/34/68 26/35/69
f 27/34/70 25/33/71 28/36/72
f 28/36/73 25/33/74 24/37/75
f 28/36/76 24/37/77 15/38/78
f 15/38/79 24/37/80 1/39/81
f 15/38/82 1/39/83 2/40/84
f 31/41/85 30/42/86 29/43/87
f 30/42/88 31/41/89 32/44/90
f 32/44/91 31/41/92 33/45/93
f 33/45/94 31/41/95 26/46/96
f 33/45/97 26/46/98 27/47/99
f 36/48/100 35/49/101 34/50/102
f 35/49/103 36/48/104 37/51/105
f 37/51/106 36/48/107 31/52/108
f 37/51/109 31/52/110 29/53/111
f 33/54/112 16/55/113 32/56/114
f 16/55/115 33/54/116 18/57/117
f 40/58/118 39/59/119 38/60/120
f 39/59/121 40/58/122 9/61/123
f 11/62/124 9/61/125 40/58/126
f 9/61/127 11/62/128 7/63/129
f 41/64/130 24/65/131 23/66/132
f 24/65/133 41/64/134 3/67/135
f 24/65/136 3/67/137 1/68/138
f 36/69/139 26/70/140 31/71/141
f 26/70/142 36/69/143 42/72/144
f 26/70/145 42/72/146 25/73/147
f 25/73/148 42/72/149 43/74/150
f 25/73/151 43/74/152 22/75/153
f 45/76/154 34/77/155 44/78/156
f 34/77/157 45/76/158 36/79/159
f 36/79/160 45/76/161 42/80/162
f 21/81/163 45/82/164 44/83/165
f 45/82/166 21/81/167 43/84/168
f 43/84/169 21/81/170 22/85/171
f 46/86/172 19/87/173 20/88/174
f 48/89/175 38/90/176 47/91/177
f 38/90/178 48/89/179 40/92/180
f 40/92/181 48/89/182 49/93/183
f 9/94/184 50/95/185 39/96/186
f 50/95/187 9/94/188 6/97/189
f 46/98/190 49/99/191 51/100/192
f 49/99/193 46/98/194 40/101/195
f 40/101/196 46/98/197 20/102/198
f 40/101/199 20/102/200 12/103/201
f 40/101/202 12/103/203 11/104/204
f 11/104/205 12/103/206 10/105/207
f 46/106/208 17/107/209 19/108/210
f 17/107/211 46/106/212 52/109/213
f 52/109/214 46/106/215 51/110/216
f 52/109/217 51/110/218 53/111/219
f 53/111/220 51/110/221 47/112/222
f 47/112/223 51/110/224 48/113/225
f 6/114/226 54/115/227 50/116/228
f 54/115/229 6/114/230 55/117/231
f 55/117/232 6/114/233 4/118/234
f 54/119/235 3/120/236 41/121/237
f 3/120/238 54/119/239 5/122/240
f 5/122/241 54/119/242 55/123/243
f 33/124/244 13/125/245 18/126/246
f 13/125/247 33/124/248 27/127/249
f 13/125/250 27/127/251 14/128/252
f 14/128/253 27/127/254 28/129/255
f 38/130/256 53/131/257 47/132/258
f 35/133/259 53/131/260 38/130/261
f 56/134/262 53/131/263 35/133/264
f 53/131/265 56/134/266 57/135/267
f 35/133/268 38/130/269 39/136/270
f 35/133/271 39/136/272 34/137/273
f 34/137/274 39/136/275 44/138/276
f 44/138/277 39/136/278 50/139/279
f 44/138/280 50/139/281 23/140/282
f 54/141/283 23/140/284 50/139/285
f 23/140/286 54/141/287 41/142/288
f 44/138/289 23/140/290 21/143/291
f 58/144/292 53/145/293 57/146/294
f 53/145/295 58/144/296 52/147/297
f 29/148/298 59/149/299 37/150/300
f 59/149/301 29/148/302 30/151/303
f 60/152/304 52/153/305 58/154/306
f 52/153/307 60/152/308 61/155/309
f 52/153/310 61/155/311 16/156/312
f 16/156/313 61/155/314 32/157/315
f 32/157/316 61/155/317 59/158/318
f 32/157/319 59/158/320 30/159/321
f 17/160/322 52/153/323 16/156/324
f 42/161/325 45/162/326 43/163/327
f 14/164/328 28/165/329 15/166/330
f 55/167/331 4/168/332 5/169/333
f 37/170/334 56/171/335 35/172/336
f 56/171/337 37/170/338 62/173/339
f 62/173/340 37/170/341 61/174/342
f 61/174/343 37/170/344 59/175/345
f 62/176/346 57/177/347 56/178/348
f 57/177/349 62/176/350 60/179/351
f 57/177/352 60/179/353 58/180/354
f 60/181/355 62/182/356 61/183/357
f 49/184/358 48/185/359 51/186/360
